<?xml version="1.0" encoding="utf-8"?>
<!-- Generator: Adobe Illustrator 22.0.1, SVG Export Plug-In . SVG Version: 6.00 Build 0)  -->
<svg version="1.1" id="Layer_1" xmlns="http://www.w3.org/2000/svg" xmlns:xlink="http://www.w3.org/1999/xlink" x="0px" y="0px"
	 viewBox="0 0 208.1 36.5" style="enable-background:new 0 0 208.1 36.5;" xml:space="preserve">
<style type="text/css">
	.st0{fill:#D0A756;}
</style>
<g>
	<polygon class="st0" points="202.3,0 202.3,15.7 195.9,15.7 195.9,0 190.2,0 190.2,36.5 195.9,36.5 195.9,20.8 202.3,20.8 
		202.3,36.5 208.1,36.5 208.1,0 	"/>
	<path class="st0" d="M12.8,0H4.6C2.1,0,0,2.1,0,4.6v27.2c0,2.6,2.1,4.6,4.6,4.6h8.2c2.5,0,4.6-2.1,4.6-4.6v-7h-5.7v6.5h-6V5.1h6
		v3.6l5.7,5.7V4.6C17.4,2.1,15.3,0,12.8,0z"/>
	<path class="st0" d="M159.1,16.1l0-11.5c0-2.6-2.1-4.6-4.6-4.6h-7.2c-2.6,0-4.6,2.1-4.6,4.6V10c0,0.2,0,1.6,0.9,3l9.9,12.7v5.6
		h-5.1v-5.3h-5.7v5.8c0,2.6,2.1,4.6,4.6,4.6h7.2c2.6,0,4.6-2.1,4.6-4.6l0-6.1c0-0.1,0-1.5-0.9-3l-9.9-12.7v-5h5.1v3.6L159.1,16.1z"
		/>
	<polygon class="st0" points="55.5,31.1 55.5,0 49.8,0 49.8,36.5 68.6,36.5 63.9,31.1 	"/>
	<g>
		<path class="st0" d="M104.1,0l-7,18.5c-2.1-1.5-4.2-3.1-6.5-5.1c0,0,3.3,5.2,8.8,10.4c-0.9-0.1-2.4-0.7-3.8-1.3l-5.2,13.9h6.4
			l4.2-11.3c2.5,2.2,5.3,4.3,8.5,6l2,5.3h6.4L104.1,0z M102.2,21.8l1.9-5l2.7,7.2C105.2,23.3,103.7,22.6,102.2,21.8z"/>
	</g>
</g>
</svg>
